<?xml version="1.0" encoding="UTF-8" standalone="no"?>
<!DOCTYPE svg PUBLIC "-//W3C//DTD SVG 1.1//EN" "http://www.w3.org/Graphics/SVG/1.1/DTD/svg11.dtd">
<svg width="38px" height="38px" viewBox="0 0 38 38" version="1.1" xmlns="http://www.w3.org/2000/svg" xmlns:xlink="http://www.w3.org/1999/xlink" xml:space="preserve" xmlns:serif="http://www.serif.com/" style="fill-rule:evenodd;clip-rule:evenodd;stroke-linecap:round;stroke-linejoin:round;stroke-miterlimit:1.5;">
    <g id="ArtBoard1" transform="matrix(0.996605,0,0,0.996116,0.0790355,3.05239)">
        <rect x="-0.079" y="-3.064" width="38.129" height="38.129" style="fill:none;"/>
        <g transform="matrix(0.966688,0,0,1.02164,0.270249,-4.85098)">
            <path d="M3.587,17.267L3.577,17.267L3.582,17.278L3.577,17.288L3.587,17.288C5.904,22.119 11.599,25.297 17.942,25.297C24.286,25.297 29.981,22.119 32.298,17.288L32.308,17.288L32.303,17.278L32.308,17.267L32.298,17.267C29.981,12.436 24.286,9.258 17.942,9.258C11.599,9.258 5.904,12.436 3.587,17.267Z" style="fill:none;stroke:rgb(117,117,117);stroke-width:2.02px;"/>
        </g>
        <g transform="matrix(0.893302,0,0,0.89374,1.86229,-5.02224)">
            <path d="M13.028,14.989C14.21,13.833 15.827,13.121 17.61,13.121C21.229,13.121 24.167,16.059 24.167,19.678C24.167,23.297 21.229,26.235 17.61,26.235C13.991,26.235 11.053,23.297 11.053,19.678C11.053,19.38 11.073,19.087 11.111,18.8C11.484,19.097 11.955,19.275 12.469,19.275C13.671,19.275 14.648,18.298 14.648,17.096C14.648,16.086 13.96,15.236 13.028,14.989Z" style="fill:rgb(117,117,117);"/>
        </g>
    </g>
</svg>
