<?xml version="1.0" encoding="utf-8"?>
<!-- Generator: Adobe Illustrator 24.1.0, SVG Export Plug-In . SVG Version: 6.00 Build 0)  -->
<svg version="1.1" xmlns="http://www.w3.org/2000/svg" xmlns:xlink="http://www.w3.org/1999/xlink" x="0px" y="0px"
	 viewBox="0 0 38 38" style="enable-background:new 0 0 38 38;" xml:space="preserve">
<style type="text/css">
	.st0{display:none;}
	.st1{display:inline;}
	.st2{fill:none;}
	.st3{fill:none;stroke:#757575;stroke-width:2.19;stroke-linecap:square;stroke-linejoin:round;stroke-miterlimit:1.5;}
	.st4{fill:none;stroke:#757575;stroke-width:2.19;stroke-linejoin:round;stroke-miterlimit:1.5;}
	.st5{fill:none;stroke:#757575;stroke-width:2;stroke-linecap:round;stroke-linejoin:round;stroke-miterlimit:1.5;}
	.st6{fill-rule:evenodd;clip-rule:evenodd;fill:#757575;}
	.st7{fill:none;stroke:#757575;stroke-width:0.25;stroke-miterlimit:10;}
	.st8{fill-rule:evenodd;clip-rule:evenodd;fill:#757576;}
</style>
<g id="Ebene_1" xmlns:serif="http://www.serif.com/" class="st0">
	<g id="ArtBoard1" transform="matrix(0.996605,0,0,0.996116,0.0790355,3.05239)" class="st1">
		<rect x="-0.1" y="-3.1" class="st2" width="38.1" height="38.1"/>
		<g transform="matrix(-0.79403,-0.218184,-0.265741,0.968052,42.7442,1.13675)">
			<path class="st3" d="M21.9,21.7c-0.6,0.4-1.3,0.7-2.1,0.7c-1.9,0-3.4-1.5-3.4-3.4c0-1.9,1.5-3.4,3.4-3.4c0.8,0,1.4,0.2,2,0.7"/>
		</g>
		<g transform="matrix(-0.79403,-0.218184,-0.265741,0.968052,42.9785,2.22758)">
			<path class="st4" d="M27,22.8c-1.5,2-3.8,3.3-6.5,3.3c-4.4,0-8-3.6-8-8s3.6-8,8-8c3,0,5.6,1.7,7,4.1"/>
		</g>
		<g transform="matrix(-0.79403,-0.218184,-0.265741,0.968052,41.662,2.91173)">
			<path class="st4" d="M31.8,19.7C30.6,25.6,25.4,30,19.1,30c-7.2,0-13-5.8-13-13c0-7.2,5.8-13,13-13c6.2,0,11.3,4.3,12.6,10"/>
		</g>
		<g transform="matrix(-1.00341,0,0,1.0039,40.1206,-3.90437)">
			<path class="st5" d="M12.9,29.6l-1,6.8"/>
		</g>
		<g transform="matrix(-1.00341,0,0,1.0039,40.1964,-3.2299)">
			<path class="st5" d="M23.4,30.5l1.3,4.7"/>
		</g>
		<g transform="matrix(-1.00146,-0.0624559,-0.0624253,1.00195,40.2599,-3.03326)">
			<path class="st6" d="M24.7,16.7l-0.4-2c0,0-2.5,2-4.1,3.2c-0.2,0.2-0.3,0.5-0.3,0.8c0.1,0.3,0.3,0.5,0.6,0.6c1.9,0.5,5,1.3,5,1.3
				l-0.4-2l12.2-2.6c0.5-0.1,0.9-0.6,0.8-1.2c-0.1-0.5-0.6-0.9-1.2-0.8L24.7,16.7z"/>
		</g>
	</g>
</g>
<g id="Ebene_2" class="st0">
	<g>
		<g class="st1">
			<path class="st6" d="M30.8,30.7V6.3c-0.1-0.2-0.1-0.5-0.3-0.7c-0.1,0-0.1-0.1-0.2-0.1V5.4l-0.1-0.1h-0.1c0,0-0.1-0.1-0.1-0.1
				h-0.1c0,0,0-0.1,0-0.1c-0.4-0.3-1.4-0.2-2.1-0.2H11.2c-0.4,0-0.7,0-1.1,0v0H10v0H9.9v0c-0.1,0-0.1,0-0.2,0c0,0,0,0.1,0,0.1H9.6
				c0,0-0.1,0.1-0.1,0.1H9.4L9.4,5.4v0.1c-0.1,0-0.1,0.1-0.2,0.1v0.1c0,0-0.1,0-0.1,0v0.1h0c0,0.1,0,0.1,0,0.2h0v0.2
				C8.9,6.4,8.9,6.8,8.9,7.1v2.4H6.3C6.2,9.6,6.1,9.6,6.1,9.6c0,0,0,0.1,0,0.1c0,0-0.1,0.1-0.1,0.1v0.1h0c0,0.2,0,0.3,0.1,0.4
				c0.2,0.3,0.5,0.3,1,0.3h2v5H6.3c-0.1,0.1-0.1,0.1-0.2,0.1c0,0,0,0.1,0,0.1c0,0-0.1,0.1-0.1,0.1V16h0c0,0.2,0,0.3,0.1,0.4
				c0.2,0.3,0.5,0.3,1,0.3h2v5H6.3c-0.1,0.1-0.1,0.1-0.2,0.1c0,0,0,0.1,0,0.1C6,21.9,6,22,5.9,22v0.1h0c0,0.2,0,0.3,0.1,0.4
				c0.2,0.3,0.5,0.3,1,0.3h2v5H6.3c-0.1,0.1-0.1,0.1-0.2,0.1c0,0,0,0.1,0,0.1c0,0-0.1,0.1-0.1,0.1v0.1h0c0,0.2,0,0.3,0.1,0.4
				c0.1,0.2,0.3,0.3,0.6,0.3v0c0,0,0.1,0,0.1,0h0.3v0c0.1,0,0.2,0,0.3,0c0.2,0,0.4,0,0.5,0c0.3,0.1,0.8,0,1.2,0v2.4
				c0,0.4,0,0.8,0.1,1.1v0.2h0c0,0.1,0,0.1,0,0.2h0v0.1c0,0,0.1,0,0.1,0v0.1c0.1,0,0.1,0.1,0.2,0.1V33l0.1,0.1h0.1
				c0,0,0.1,0.1,0.1,0.1h0.1c0,0,0,0.1,0,0.1c0.1,0,0.1,0,0.2,0v0H10v0h0.1v0c0.3,0.1,1.1,0,1.5,0h16.8c0.6,0,1.2,0,1.6-0.2v0h0.1
				c0,0,0-0.1,0-0.1h0.1c0,0,0.1-0.1,0.1-0.1h0.1l0.1-0.1V33c0.1,0,0.1-0.1,0.2-0.1v-0.1c0,0,0.1,0,0.1,0v-0.1h0c0-0.1,0-0.1,0-0.2
				h0C30.9,32.1,30.8,31.2,30.8,30.7z M22.9,6h3.1v5.1c-0.3-0.3-0.6-0.6-1-0.9c-0.1-0.1-0.2-0.2-0.2-0.3c-0.1,0-0.1,0-0.2,0v0h-0.4
				c-0.1,0.1-0.1,0-0.2,0.1c-0.4,0.4-0.8,0.8-1.1,1.2h0V6z M29.8,32L29.8,32l0,0.2c0,0,0,0-0.1,0.1h-0.1v0.1c-0.8,0.2-2,0.1-2.9,0.1
				H10.3v0c-0.1,0-0.1,0-0.2,0v-0.1h-0.1c0-0.1-0.1-0.1-0.1-0.1V32h0v-3.1h1.3c0.1,0.4,0.6,0.8,1,1h0.2c0.1,0,0.5,0.1,0.6,0v0h0.2v0
				h0.1v0c0.1,0,0.2-0.1,0.2-0.1v0h0.1v0c0.1-0.1,0.1-0.1,0.2-0.1c0-0.1,0.1-0.2,0.2-0.2h0c0-0.1,0-0.1,0-0.2c0,0,0.1,0,0.1,0
				c0.1-0.2,0.1-0.3,0.2-0.5c0.1-0.4-0.2-1-0.3-1.2h0c-0.1-0.1-0.1-0.1-0.2-0.2c-0.1,0-0.1-0.1-0.2-0.1v0h-0.1v0
				c-0.1,0-0.2-0.1-0.2-0.1v0h-0.1v0H13v0c-0.2-0.1-0.5,0-0.6,0h-0.2v0h-0.1v0H12v0h-0.1c0,0,0,0.1,0,0.1h-0.1c0,0,0,0.1,0,0.1h-0.1
				c0,0,0,0.1,0,0.1c-0.1,0.1-0.2,0.1-0.2,0.2c0,0.1,0,0.1,0,0.2c0,0-0.1,0-0.1,0c0,0.1-0.1,0.2-0.1,0.2H10c0-1.6,0-3.3,0-5h1.3
				c0,0.1,0.1,0.2,0.1,0.2c0,0,0.1,0,0.1,0c0,0.1,0,0.1,0,0.2c0.1,0.1,0.2,0.1,0.2,0.2c0,0,0,0.1,0,0.1h0.1c0,0,0,0.1,0,0.1h0.1
				c0,0,0,0.1,0,0.1H12v0h0.1v0h0.1v0h0.2v0c0.2,0.1,0.8,0,0.9-0.1v0c0.1,0,0.2-0.1,0.2-0.1v0h0.1c0-0.1,0.1-0.1,0.1-0.2
				c0.1-0.1,0.2-0.2,0.3-0.2c0.2-0.3,0.4-0.9,0.2-1.3h0v-0.1h0v-0.1h0v-0.1c0,0-0.1,0-0.1,0c0-0.1,0-0.1,0-0.2h0
				c0-0.1-0.1-0.1-0.1-0.2h-0.1v-0.1c-0.1,0-0.1-0.1-0.2-0.1v0h-0.1v0c-0.1,0-0.2-0.1-0.2-0.1v0h-0.1v0H13v0c-0.2-0.1-0.5,0-0.6,0
				h-0.2v0h-0.1v0H12v0h-0.1c0,0,0,0.1,0,0.1h-0.1c0,0,0,0.1,0,0.1h-0.1c0,0,0,0.1,0,0.1c-0.1,0.1-0.2,0.1-0.2,0.2
				c0,0.1,0,0.1,0,0.2c0,0-0.1,0-0.1,0c0,0.1-0.1,0.2-0.1,0.2H10v-5h1.3c0.1,0.4,0.6,0.8,1,1h0.2c0.1,0,0.5,0.1,0.6,0v0h0.2v0h0.1v0
				c0.1,0,0.2-0.1,0.2-0.1v0h0.1v0c0.1-0.1,0.1-0.1,0.2-0.1c0-0.1,0.1-0.2,0.2-0.2h0c0-0.1,0-0.1,0-0.2c0,0,0.1,0,0.1,0
				c0.1-0.2,0.1-0.3,0.2-0.5c0.1-0.4-0.2-1-0.3-1.2h0c-0.1-0.1-0.1-0.1-0.2-0.2c-0.1,0-0.1-0.1-0.2-0.1v0h-0.1v0
				c-0.1,0-0.2-0.1-0.2-0.1v0h-0.1v0H13v0c-0.2-0.1-0.5,0-0.6,0h-0.2v0h-0.1v0H12v0h-0.1c0,0,0,0.1,0,0.1h-0.1c0,0,0,0.1,0,0.1h-0.1
				c0,0,0,0.1,0,0.1c-0.1,0.1-0.2,0.1-0.2,0.2c0,0.1,0,0.1,0,0.2c0,0-0.1,0-0.1,0c0,0.1-0.1,0.2-0.1,0.2H10v-5h1.3
				c0.1,0.4,0.6,0.8,1,1h0.2c0.1,0,0.5,0.1,0.6,0v0h0.2v0h0.1v0c0.1,0,0.2-0.1,0.2-0.1v0h0.1v0c0.1-0.1,0.1-0.1,0.2-0.1
				c0-0.1,0.1-0.2,0.2-0.2h0c0-0.1,0-0.1,0-0.2c0,0,0.1,0,0.1,0c0.1-0.2,0.1-0.3,0.2-0.5c0.1-0.4-0.2-1-0.3-1.2h0
				C13.8,9,13.8,9,13.7,8.9c-0.1,0-0.1-0.1-0.2-0.1v0h-0.1v0c-0.1,0-0.2-0.1-0.2-0.1v0h-0.1v0H13v0c-0.2-0.1-0.5,0-0.6,0h-0.2v0
				h-0.1v0H12v0h-0.1c0,0,0,0.1,0,0.1h-0.1c0,0,0,0.1,0,0.1h-0.1c0,0,0,0.1,0,0.1C11.6,9,11.5,9,11.4,9.1c0,0.1,0,0.1,0,0.2
				c0,0-0.1,0-0.1,0c0,0.1-0.1,0.2-0.1,0.2H10V6.4h0V6.3c0,0,0,0,0.1-0.1h0.1V6.1h0.1c0,0,0-0.1,0-0.1h11.6v6.1c0,0.2,0,0.4,0.1,0.5
				c0.1,0.2,0.3,0.3,0.6,0.3c0.1-0.1,0.3-0.3,0.4-0.4c0.3-0.3,0.6-0.6,0.9-0.9c0.2-0.2,0.4-0.3,0.5-0.5c0.2,0.1,0.3,0.3,0.4,0.4
				c0.3,0.3,0.6,0.6,1,1c0.1,0.1,0.4,0.3,0.4,0.5c0,0,0.1,0,0.1,0v0h0.3v0c0.1,0,0.1,0,0.2,0v0c0.1,0,0.1-0.1,0.2-0.1
				c0.1-2.1,0-4.5,0-6.7c0.8,0,1.9-0.1,2.6,0.1v0.1h0.1c0,0.1,0.1,0.1,0.1,0.1v0.2h0V32z M13.2,28c0,0,0,0.1,0,0.1h0
				c0.1,0.1,0,0.4,0,0.4c0,0.3-0.4,0.4-0.8,0.4c-0.1-0.1-0.2-0.1-0.2-0.2v-0.1c0,0-0.1,0-0.1,0c0-0.1,0-0.1,0-0.2h0
				c0-0.2,0.1-0.5,0.2-0.6h0.1v0c0.1,0,0.1,0,0.2,0v0c0.2,0,0.3,0,0.4,0.1C13.1,27.9,13,27.9,13.2,28L13.2,28L13.2,28L13.2,28z
				 M13.2,22v0.1h0c0,0.2,0,0.4-0.1,0.5h0c-0.1,0.1-0.1,0.1-0.2,0.2c-0.2,0-0.3,0.1-0.5,0c-0.1,0,0,0-0.1,0
				c-0.2-0.1-0.2-0.2-0.3-0.3c0-0.2,0-0.4,0.1-0.5h0c0-0.1,0.1-0.1,0.1-0.2c0.1,0,0.2-0.1,0.3-0.1c0.1,0,0.3,0.1,0.4,0.1
				c0,0,0.1,0.1,0.1,0.1h0L13.2,22C13.2,22,13.2,22,13.2,22z M12.4,16.7L12.4,16.7L12.4,16.7c-0.1-0.1-0.1-0.1-0.2-0.2h0v-0.1
				c0,0-0.1,0-0.1,0c-0.2-0.3,0.1-0.8,0.3-0.8v0h0.2v0c0.1,0,0.2,0,0.3,0c0.1,0.1,0.2,0.2,0.3,0.2c0,0.1,0,0.1,0.1,0.2v0.4
				c-0.1,0.1-0.1,0.3-0.3,0.3v0C12.8,16.8,12.5,16.8,12.4,16.7L12.4,16.7L12.4,16.7z M12.1,10.4c0-0.2-0.1-0.3-0.1-0.5
				c0.1-0.1,0-0.1,0.1-0.2c0.1-0.1,0.1-0.1,0.2-0.2v0c0.1,0,0.1,0,0.2,0v0c0.2,0,0.3,0,0.4,0.1c0.2,0.1,0.2,0.2,0.3,0.3
				c0,0.2,0,0.4-0.1,0.5c-0.1,0.3-0.4,0.3-0.7,0.3c-0.1-0.1-0.1,0-0.2-0.1v0C12.2,10.5,12.2,10.4,12.1,10.4z"/>
		</g>
		<g class="st1">
			<path class="st7" d="M30.8,30.7V6.3c-0.1-0.2-0.1-0.5-0.3-0.7c-0.1,0-0.1-0.1-0.2-0.1V5.4l-0.1-0.1h-0.1c0,0-0.1-0.1-0.1-0.1
				h-0.1c0,0,0-0.1,0-0.1c-0.4-0.3-1.4-0.2-2.1-0.2H11.2c-0.4,0-0.7,0-1.1,0v0H10v0H9.9v0c-0.1,0-0.1,0-0.2,0c0,0,0,0.1,0,0.1H9.6
				c0,0-0.1,0.1-0.1,0.1H9.4L9.4,5.4v0.1c-0.1,0-0.1,0.1-0.2,0.1v0.1c0,0-0.1,0-0.1,0v0.1h0c0,0.1,0,0.1,0,0.2h0v0.2
				C8.9,6.4,8.9,6.8,8.9,7.1v2.4H6.3C6.2,9.6,6.1,9.6,6.1,9.6c0,0,0,0.1,0,0.1c0,0-0.1,0.1-0.1,0.1v0.1h0c0,0.2,0,0.3,0.1,0.4
				c0.2,0.3,0.5,0.3,1,0.3h2v5H6.3c-0.1,0.1-0.1,0.1-0.2,0.1c0,0,0,0.1,0,0.1c0,0-0.1,0.1-0.1,0.1V16h0c0,0.2,0,0.3,0.1,0.4
				c0.2,0.3,0.5,0.3,1,0.3h2v5H6.3c-0.1,0.1-0.1,0.1-0.2,0.1c0,0,0,0.1,0,0.1C6,21.9,6,22,5.9,22v0.1h0c0,0.2,0,0.3,0.1,0.4
				c0.2,0.3,0.5,0.3,1,0.3h2v5H6.3c-0.1,0.1-0.1,0.1-0.2,0.1c0,0,0,0.1,0,0.1c0,0-0.1,0.1-0.1,0.1v0.1h0c0,0.2,0,0.3,0.1,0.4
				c0.1,0.2,0.3,0.3,0.6,0.3v0c0,0,0.1,0,0.1,0h0.3v0c0.1,0,0.2,0,0.3,0c0.2,0,0.4,0,0.5,0c0.3,0.1,0.8,0,1.2,0v2.4
				c0,0.4,0,0.8,0.1,1.1v0.2h0c0,0.1,0,0.1,0,0.2h0v0.1c0,0,0.1,0,0.1,0v0.1c0.1,0,0.1,0.1,0.2,0.1V33l0.1,0.1h0.1
				c0,0,0.1,0.1,0.1,0.1h0.1c0,0,0,0.1,0,0.1c0.1,0,0.1,0,0.2,0v0H10v0h0.1v0c0.3,0.1,1.1,0,1.5,0h16.8c0.6,0,1.2,0,1.6-0.2v0h0.1
				c0,0,0-0.1,0-0.1h0.1c0,0,0.1-0.1,0.1-0.1h0.1l0.1-0.1V33c0.1,0,0.1-0.1,0.2-0.1v-0.1c0,0,0.1,0,0.1,0v-0.1h0c0-0.1,0-0.1,0-0.2
				h0C30.9,32.1,30.8,31.2,30.8,30.7z M22.9,6h3.1v5.1c-0.3-0.3-0.6-0.6-1-0.9c-0.1-0.1-0.2-0.2-0.2-0.3c-0.1,0-0.1,0-0.2,0v0h-0.4
				c-0.1,0.1-0.1,0-0.2,0.1c-0.4,0.4-0.8,0.8-1.1,1.2h0V6z M29.8,32L29.8,32l0,0.2c0,0,0,0-0.1,0.1h-0.1v0.1c-0.8,0.2-2,0.1-2.9,0.1
				H10.3v0c-0.1,0-0.1,0-0.2,0v-0.1h-0.1c0-0.1-0.1-0.1-0.1-0.1V32h0v-3.1h1.3c0.1,0.4,0.6,0.8,1,1h0.2c0.1,0,0.5,0.1,0.6,0v0h0.2v0
				h0.1v0c0.1,0,0.2-0.1,0.2-0.1v0h0.1v0c0.1-0.1,0.1-0.1,0.2-0.1c0-0.1,0.1-0.2,0.2-0.2h0c0-0.1,0-0.1,0-0.2c0,0,0.1,0,0.1,0
				c0.1-0.2,0.1-0.3,0.2-0.5c0.1-0.4-0.2-1-0.3-1.2h0c-0.1-0.1-0.1-0.1-0.2-0.2c-0.1,0-0.1-0.1-0.2-0.1v0h-0.1v0
				c-0.1,0-0.2-0.1-0.2-0.1v0h-0.1v0H13v0c-0.2-0.1-0.5,0-0.6,0h-0.2v0h-0.1v0H12v0h-0.1c0,0,0,0.1,0,0.1h-0.1c0,0,0,0.1,0,0.1h-0.1
				c0,0,0,0.1,0,0.1c-0.1,0.1-0.2,0.1-0.2,0.2c0,0.1,0,0.1,0,0.2c0,0-0.1,0-0.1,0c0,0.1-0.1,0.2-0.1,0.2H10c0-1.6,0-3.3,0-5h1.3
				c0,0.1,0.1,0.2,0.1,0.2c0,0,0.1,0,0.1,0c0,0.1,0,0.1,0,0.2c0.1,0.1,0.2,0.1,0.2,0.2c0,0,0,0.1,0,0.1h0.1c0,0,0,0.1,0,0.1h0.1
				c0,0,0,0.1,0,0.1H12v0h0.1v0h0.1v0h0.2v0c0.2,0.1,0.8,0,0.9-0.1v0c0.1,0,0.2-0.1,0.2-0.1v0h0.1c0-0.1,0.1-0.1,0.1-0.2
				c0.1-0.1,0.2-0.2,0.3-0.2c0.2-0.3,0.4-0.9,0.2-1.3h0v-0.1h0v-0.1h0v-0.1c0,0-0.1,0-0.1,0c0-0.1,0-0.1,0-0.2h0
				c0-0.1-0.1-0.1-0.1-0.2h-0.1v-0.1c-0.1,0-0.1-0.1-0.2-0.1v0h-0.1v0c-0.1,0-0.2-0.1-0.2-0.1v0h-0.1v0H13v0c-0.2-0.1-0.5,0-0.6,0
				h-0.2v0h-0.1v0H12v0h-0.1c0,0,0,0.1,0,0.1h-0.1c0,0,0,0.1,0,0.1h-0.1c0,0,0,0.1,0,0.1c-0.1,0.1-0.2,0.1-0.2,0.2
				c0,0.1,0,0.1,0,0.2c0,0-0.1,0-0.1,0c0,0.1-0.1,0.2-0.1,0.2H10v-5h1.3c0.1,0.4,0.6,0.8,1,1h0.2c0.1,0,0.5,0.1,0.6,0v0h0.2v0h0.1v0
				c0.1,0,0.2-0.1,0.2-0.1v0h0.1v0c0.1-0.1,0.1-0.1,0.2-0.1c0-0.1,0.1-0.2,0.2-0.2h0c0-0.1,0-0.1,0-0.2c0,0,0.1,0,0.1,0
				c0.1-0.2,0.1-0.3,0.2-0.5c0.1-0.4-0.2-1-0.3-1.2h0c-0.1-0.1-0.1-0.1-0.2-0.2c-0.1,0-0.1-0.1-0.2-0.1v0h-0.1v0
				c-0.1,0-0.2-0.1-0.2-0.1v0h-0.1v0H13v0c-0.2-0.1-0.5,0-0.6,0h-0.2v0h-0.1v0H12v0h-0.1c0,0,0,0.1,0,0.1h-0.1c0,0,0,0.1,0,0.1h-0.1
				c0,0,0,0.1,0,0.1c-0.1,0.1-0.2,0.1-0.2,0.2c0,0.1,0,0.1,0,0.2c0,0-0.1,0-0.1,0c0,0.1-0.1,0.2-0.1,0.2H10v-5h1.3
				c0.1,0.4,0.6,0.8,1,1h0.2c0.1,0,0.5,0.1,0.6,0v0h0.2v0h0.1v0c0.1,0,0.2-0.1,0.2-0.1v0h0.1v0c0.1-0.1,0.1-0.1,0.2-0.1
				c0-0.1,0.1-0.2,0.2-0.2h0c0-0.1,0-0.1,0-0.2c0,0,0.1,0,0.1,0c0.1-0.2,0.1-0.3,0.2-0.5c0.1-0.4-0.2-1-0.3-1.2h0
				C13.8,9,13.8,9,13.7,8.9c-0.1,0-0.1-0.1-0.2-0.1v0h-0.1v0c-0.1,0-0.2-0.1-0.2-0.1v0h-0.1v0H13v0c-0.2-0.1-0.5,0-0.6,0h-0.2v0
				h-0.1v0H12v0h-0.1c0,0,0,0.1,0,0.1h-0.1c0,0,0,0.1,0,0.1h-0.1c0,0,0,0.1,0,0.1C11.6,9,11.5,9,11.4,9.1c0,0.1,0,0.1,0,0.2
				c0,0-0.1,0-0.1,0c0,0.1-0.1,0.2-0.1,0.2H10V6.4h0V6.3c0,0,0,0,0.1-0.1h0.1V6.1h0.1c0,0,0-0.1,0-0.1h11.6v6.1c0,0.2,0,0.4,0.1,0.5
				c0.1,0.2,0.3,0.3,0.6,0.3c0.1-0.1,0.3-0.3,0.4-0.4c0.3-0.3,0.6-0.6,0.9-0.9c0.2-0.2,0.4-0.3,0.5-0.5c0.2,0.1,0.3,0.3,0.4,0.4
				c0.3,0.3,0.6,0.6,1,1c0.1,0.1,0.4,0.3,0.4,0.5c0,0,0.1,0,0.1,0v0h0.3v0c0.1,0,0.1,0,0.2,0v0c0.1,0,0.1-0.1,0.2-0.1
				c0.1-2.1,0-4.5,0-6.7c0.8,0,1.9-0.1,2.6,0.1v0.1h0.1c0,0.1,0.1,0.1,0.1,0.1v0.2h0V32z M13.2,28c0,0,0,0.1,0,0.1h0
				c0.1,0.1,0,0.4,0,0.4c0,0.3-0.4,0.4-0.8,0.4c-0.1-0.1-0.2-0.1-0.2-0.2v-0.1c0,0-0.1,0-0.1,0c0-0.1,0-0.1,0-0.2h0
				c0-0.2,0.1-0.5,0.2-0.6h0.1v0c0.1,0,0.1,0,0.2,0v0c0.2,0,0.3,0,0.4,0.1C13.1,27.9,13,27.9,13.2,28L13.2,28L13.2,28L13.2,28z
				 M13.2,22v0.1h0c0,0.2,0,0.4-0.1,0.5h0c-0.1,0.1-0.1,0.1-0.2,0.2c-0.2,0-0.3,0.1-0.5,0c-0.1,0,0,0-0.1,0
				c-0.2-0.1-0.2-0.2-0.3-0.3c0-0.2,0-0.4,0.1-0.5h0c0-0.1,0.1-0.1,0.1-0.2c0.1,0,0.2-0.1,0.3-0.1c0.1,0,0.3,0.1,0.4,0.1
				c0,0,0.1,0.1,0.1,0.1h0L13.2,22C13.2,22,13.2,22,13.2,22z M12.4,16.7L12.4,16.7L12.4,16.7c-0.1-0.1-0.1-0.1-0.2-0.2h0v-0.1
				c0,0-0.1,0-0.1,0c-0.2-0.3,0.1-0.8,0.3-0.8v0h0.2v0c0.1,0,0.2,0,0.3,0c0.1,0.1,0.2,0.2,0.3,0.2c0,0.1,0,0.1,0.1,0.2v0.4
				c-0.1,0.1-0.1,0.3-0.3,0.3v0C12.8,16.8,12.5,16.8,12.4,16.7L12.4,16.7L12.4,16.7z M12.1,10.4c0-0.2-0.1-0.3-0.1-0.5
				c0.1-0.1,0-0.1,0.1-0.2c0.1-0.1,0.1-0.1,0.2-0.2v0c0.1,0,0.1,0,0.2,0v0c0.2,0,0.3,0,0.4,0.1c0.2,0.1,0.2,0.2,0.3,0.3
				c0,0.2,0,0.4-0.1,0.5c-0.1,0.3-0.4,0.3-0.7,0.3c-0.1-0.1-0.1,0-0.2-0.1v0C12.2,10.5,12.2,10.4,12.1,10.4z"/>
		</g>
	</g>
</g>
<g id="Ebene_3">
	<path class="st8" d="M31.9,31.9c0-1.4,0-2.8,0-4.2c0-7.8,0-15.6,0-23.4c-0.1-0.5-0.3-0.8-0.6-1.1c0-0.1-0.1-0.1-0.1-0.2
		c0,0-0.1,0-0.1,0C31,3,31,2.9,31,2.9c-0.5-0.3-1.6-0.2-2.4-0.2c-1.8,0-3.5,0-5.3,0c-3.7,0-7.3,0-11,0c-0.9,0-1.7,0-2.6,0
		c-0.4,0-0.9,0-1.3,0c0,0,0,0,0,0c0,0-0.1,0-0.1,0c0,0,0,0,0,0c-0.1,0-0.1,0-0.2,0c0,0,0,0,0,0c0,0-0.1,0-0.1,0c0,0-0.1,0.1-0.1,0.1
		c0,0-0.1,0-0.1,0c0,0.1-0.1,0.1-0.1,0.2c0,0-0.1,0-0.1,0L7.5,3.3c0,0,0,0.1,0,0.1c-0.1,0-0.1,0.1-0.2,0.1c0,0,0,0.1,0,0.1
		c0,0-0.1,0-0.1,0c0,0,0,0.1,0,0.1c0,0,0,0,0,0c0,0,0,0.1,0,0.1c0,0,0,0,0,0c0,0,0,0.1,0,0.1c0,0,0,0,0,0c0,0,0,0.1,0,0.1
		c0,0,0,0,0,0C7,4.4,7,4.9,7,5.3C7,6.1,7,7,7,7.8c-1,0-1.9,0-2.9,0C3.9,7.9,3.8,8.1,3.7,8.2c0,0.1-0.1,0.7,0,0.8
		c0,0.2,0.1,0.2,0.2,0.3c0,0.1,0.1,0.1,0.1,0.2c0.2,0.1,0.6,0.1,0.9,0.1c0.7,0,1.5,0,2.2,0c0,1.7,0,3.4,0,5.1c-1,0-1.9,0-2.9,0
		c-0.2,0.1-0.3,0.3-0.5,0.4c0,0.1-0.1,0.7,0,0.8c0,0.2,0.1,0.2,0.2,0.3c0,0.1,0.1,0.1,0.1,0.2c0.2,0.1,0.6,0.1,0.9,0.1
		c0.7,0,1.5,0,2.2,0c0,1.7,0,3.4,0,5.1c-1,0-1.9,0-2.9,0c-0.2,0.1-0.3,0.3-0.5,0.4c0,0.1-0.1,0.7,0,0.8c0,0.2,0.1,0.2,0.2,0.3
		C3.9,22.9,3.9,23,4,23c0.2,0.1,0.6,0.1,0.9,0.1c0.7,0,1.5,0,2.2,0c0,1.7,0,3.4,0,5.1c-1,0-1.9,0-2.9,0c-0.2,0.1-0.3,0.3-0.5,0.4
		c0,0.1-0.1,0.7,0,0.8c0,0.2,0.1,0.2,0.2,0.3c0,0.1,0.1,0.1,0.1,0.2c0.2,0.1,0.6,0.1,0.9,0.1c0.7,0,1.5,0,2.2,0c0,0.8,0,1.7,0,2.5
		c0,0.4-0.1,0.9,0,1.2c0,0,0,0,0,0c0,0,0,0.1,0,0.1c0,0,0,0,0,0c0,0,0,0.1,0,0.1c0,0,0,0,0,0c0,0,0,0.1,0,0.1c0,0,0,0,0,0
		c0,0,0,0.1,0,0.1c0,0,0.1,0,0.1,0c0,0,0,0.1,0,0.1c0.1,0,0.1,0.1,0.2,0.1c0,0,0,0.1,0,0.1l0.1,0.1c0,0,0.1,0,0.1,0
		c0,0.1,0.1,0.1,0.1,0.2c0,0,0.1,0,0.1,0c0,0,0.1,0.1,0.1,0.1c0,0,0.1,0,0.1,0c0,0,0,0,0,0c0.1,0,0.1,0,0.2,0c0,0,0,0,0,0
		c0,0,0.1,0,0.1,0c0,0,0,0,0,0c0.1,0,0.2,0,0.3,0c0.3,0.1,0.9,0,1.3,0c1.1,0,2.2,0,3.3,0c4.1,0,8.2,0,12.3,0c1.2,0,2.4,0,3.5,0
		c0.5,0,1.3,0.1,1.6-0.1c0,0,0,0,0,0c0,0,0.1,0,0.1,0c0,0,0,0,0,0c0.1,0,0.1,0,0.2,0c0,0,0.1-0.1,0.1-0.1c0,0,0.1,0,0.1,0
		c0-0.1,0.1-0.1,0.1-0.2c0,0,0.1,0,0.1,0c0.1-0.2,0.3-0.4,0.4-0.6C32,33.4,31.9,32.6,31.9,31.9z M23.1,4.4c1,0,1.9,0,2.9,0
		c0,1.6,0,3.2,0,4.8c-0.2-0.2-0.5-0.4-0.7-0.6c-0.1-0.1-0.2-0.2-0.4-0.3c-0.1-0.1-0.6,0-0.8,0c0,0.1-0.1,0-0.1,0.1c0,0,0,0,0,0
		c0,0-0.1,0-0.1,0c-0.3,0.3-0.5,0.6-0.8,0.9c0,0,0,0,0,0C23.1,7.6,23.1,6,23.1,4.4z M30.2,8c0,2.1,0,4.3,0,6.4c0,4.2,0,8.4,0,12.6
		c0,1.3,0,2.6,0,3.9c0,0.7,0,1.4,0,2.1c0,0,0,0,0,0c0,0,0,0.1,0,0.1c0,0,0,0,0,0c0,0,0,0.1,0,0.1c-0.7,0.2-1.8,0.1-2.6,0.1
		c-1.6,0-3.3,0-4.9,0c-3.1,0-6.2,0-9.3,0c-0.9,0-1.9,0-2.8,0c-0.5,0-1,0-1.6,0c0,0,0-0.1,0-0.1c0,0-0.1,0-0.1,0c0,0,0-0.1,0-0.1
		c0,0,0,0,0,0c0,0,0-0.1,0-0.1c0,0,0,0,0,0c0-1,0-2,0-3.1c0.3,0,0.6,0,0.9,0c0,0.1,0,0.1,0,0.2c0,0,0.1,0,0.1,0c0,0.1,0,0.1,0,0.2
		c0.1,0,0.1,0.1,0.2,0.1c0.1,0.1,0.1,0.2,0.2,0.3c0.3,0.2,0.6,0.3,1.1,0.3c0.2,0,0.4,0,0.6,0c0,0,0,0,0,0c0.1,0,0.1,0,0.2,0
		c0,0,0,0,0,0c0,0,0.1,0,0.1,0c0,0,0,0,0,0c0.1,0,0.2-0.1,0.3-0.1c0,0,0,0,0,0c0,0,0.1,0,0.1,0c0-0.1,0.1-0.1,0.1-0.2
		c0.1-0.1,0.3-0.3,0.4-0.4c0-0.1,0.1-0.2,0.1-0.3c0,0,0,0,0,0c0,0,0-0.1,0-0.1c0,0,0,0,0,0c0-0.1,0-0.2,0-0.3c0-0.1,0.1-0.7,0-0.9
		c0,0,0,0,0,0c0-0.1,0-0.1,0-0.2c0,0,0,0,0,0c0,0,0-0.1,0-0.1c0,0,0,0,0,0c0-0.1-0.1-0.2-0.1-0.3c0,0,0,0,0,0c0-0.1,0-0.1,0-0.2
		c-0.1,0-0.1-0.1-0.2-0.1c-0.1-0.1-0.2-0.3-0.3-0.4c0,0-0.1,0-0.1,0c0,0,0,0,0,0c-0.1,0-0.2-0.1-0.3-0.1c0,0,0,0,0,0
		c0,0-0.1,0-0.1,0c0,0,0,0,0,0c-0.2-0.1-0.5,0-0.8,0c-0.5,0-0.9,0.1-1.2,0.3c-0.1,0.1-0.1,0.1-0.2,0.2c-0.1,0.1-0.1,0.1-0.2,0.2
		c0,0.1,0,0.1,0,0.2c0,0-0.1,0-0.1,0c0,0.1,0,0.1,0,0.2c-0.3,0-0.6,0-0.9,0c0-1.7,0-3.4,0-5.1c0.3,0,0.6,0,0.9,0c0,0.1,0,0.1,0,0.2
		c0,0,0.1,0,0.1,0c0,0.1,0,0.1,0,0.2c0.1,0,0.1,0.1,0.2,0.1c0.1,0.1,0.1,0.2,0.2,0.3c0.3,0.2,0.6,0.3,1.1,0.3c0.2,0,0.4,0,0.6,0
		c0.2-0.1,0.3-0.1,0.5-0.2c0,0,0-0.1,0-0.1c0.1,0,0.1,0,0.2,0c0.1-0.1,0.2-0.2,0.3-0.3c0.1,0,0.1-0.1,0.2-0.1c0,0,0-0.1,0-0.1
		c0,0,0.1,0,0.1,0c0,0,0-0.1,0-0.1c0,0,0.1,0,0.1,0c0,0,0-0.1,0-0.1c0,0,0,0,0,0c0,0,0-0.1,0-0.1c0,0,0,0,0,0c0,0,0-0.1,0-0.1
		c0,0,0,0,0,0c0-0.1,0-0.1,0-0.2c0-0.1,0.1-0.7,0-0.9c0,0,0,0,0,0c0-0.1,0-0.2,0-0.3c0,0,0,0,0,0c0,0,0-0.1,0-0.1c0,0,0,0,0,0
		c0,0,0-0.1,0-0.1c0,0-0.1,0-0.1,0c0-0.1,0-0.1,0-0.2C13,21,13,21,12.9,20.9c0,0,0-0.1,0-0.1l-0.1-0.1c0,0-0.1,0-0.1,0
		c0-0.1-0.1-0.1-0.1-0.2c0,0-0.1,0-0.1,0c0,0,0,0,0,0c-0.1,0-0.2-0.1-0.3-0.1c0,0,0,0,0,0c0,0-0.1,0-0.1,0c0,0,0,0,0,0
		c-0.2-0.1-0.5,0-0.8,0c-0.5,0-0.9,0.1-1.2,0.3c-0.1,0.1-0.1,0.1-0.2,0.2C9.9,20.9,9.9,21,9.8,21c0,0.1,0,0.1,0,0.2c0,0-0.1,0-0.1,0
		c0,0.1,0,0.1,0,0.2c-0.3,0-0.6,0-0.9,0c0-1.7,0-3.4,0-5.1c0.3,0,0.6,0,0.9,0c0,0.1,0,0.1,0,0.2c0,0,0.1,0,0.1,0c0,0.1,0,0.1,0,0.2
		c0.1,0,0.1,0.1,0.2,0.1c0.1,0.1,0.1,0.2,0.2,0.3c0.3,0.2,0.6,0.3,1.1,0.3c0.2,0,0.4,0,0.6,0c0,0,0,0,0,0c0.1,0,0.1,0,0.2,0
		c0,0,0,0,0,0c0,0,0.1,0,0.1,0c0,0,0,0,0,0c0.1,0,0.2-0.1,0.3-0.1c0,0,0,0,0,0c0,0,0.1,0,0.1,0c0-0.1,0.1-0.1,0.1-0.2
		c0.1-0.1,0.3-0.3,0.4-0.4c0-0.1,0.1-0.2,0.1-0.3c0,0,0,0,0,0c0,0,0-0.1,0-0.1c0,0,0,0,0,0c0-0.1,0-0.2,0-0.3c0-0.1,0.1-0.7,0-0.9
		c0,0,0,0,0,0c0-0.1,0-0.1,0-0.2c0,0,0,0,0,0c0,0,0-0.1,0-0.1c0,0,0,0,0,0c0-0.1-0.1-0.2-0.1-0.3c0,0,0,0,0,0c0-0.1,0-0.1,0-0.2
		c-0.1,0-0.1-0.1-0.2-0.1c-0.1-0.1-0.2-0.3-0.3-0.4c0,0-0.1,0-0.1,0c0,0,0,0,0,0c-0.1,0-0.2-0.1-0.3-0.1c0,0,0,0,0,0
		c0,0-0.1,0-0.1,0c0,0,0,0,0,0c-0.2-0.1-0.5,0-0.8,0c-0.5,0-0.9,0.1-1.2,0.3C10.1,13.9,10.1,14,10,14c-0.1,0.1-0.1,0.1-0.2,0.2
		c0,0.1,0,0.1,0,0.2c0,0-0.1,0-0.1,0c0,0.1,0,0.1,0,0.2c-0.3,0-0.6,0-0.9,0c0-1.7,0-3.4,0-5.1c0.3,0,0.6,0,0.9,0c0,0.1,0,0.1,0,0.2
		c0,0,0.1,0,0.1,0c0,0.1,0,0.1,0,0.2C9.8,9.9,9.9,10,10,10c0.1,0.1,0.1,0.2,0.2,0.3c0.3,0.2,0.6,0.3,1.1,0.3c0.2,0,0.4,0,0.6,0
		c0,0,0,0,0,0c0.1,0,0.1,0,0.2,0c0,0,0,0,0,0c0,0,0.1,0,0.1,0c0,0,0,0,0,0c0.1,0,0.2-0.1,0.3-0.1c0,0,0,0,0,0c0,0,0.1,0,0.1,0
		c0-0.1,0.1-0.1,0.1-0.2c0.1-0.1,0.3-0.3,0.4-0.4c0-0.1,0.1-0.2,0.1-0.3c0,0,0,0,0,0c0,0,0-0.1,0-0.1c0,0,0,0,0,0c0-0.1,0-0.2,0-0.3
		c0-0.1,0.1-0.7,0-0.9c0,0,0,0,0,0c0-0.1,0-0.1,0-0.2c0,0,0,0,0,0c0,0,0-0.1,0-0.1c0,0,0,0,0,0c0-0.1-0.1-0.2-0.1-0.3c0,0,0,0,0,0
		c0-0.1,0-0.1,0-0.2c-0.1,0-0.1-0.1-0.2-0.1c-0.1-0.1-0.2-0.3-0.3-0.4c0,0-0.1,0-0.1,0c0,0,0,0,0,0c-0.1,0-0.2-0.1-0.3-0.1
		c0,0,0,0,0,0c0,0-0.1,0-0.1,0c0,0,0,0,0,0c-0.2-0.1-0.5,0-0.8,0c-0.5,0-0.9,0.1-1.2,0.3c-0.1,0.1-0.1,0.1-0.2,0.2
		C9.9,7.3,9.9,7.4,9.8,7.4c0,0.1,0,0.1,0,0.2c0,0-0.1,0-0.1,0c0,0.1,0,0.1,0,0.2c-0.3,0-0.6,0-0.9,0c0-1,0-2,0-3.1c0,0,0,0,0,0
		c0,0,0-0.1,0-0.1c0,0,0,0,0,0c0,0,0-0.1,0-0.1c0,0,0.1,0,0.1,0c0,0,0-0.1,0-0.1c0.5,0,1,0,1.4,0c0.9,0,1.7,0,2.6,0
		c2.8,0,5.6,0,8.4,0c0,1.8,0,3.6,0,5.4c0,0.4,0,0.9,0,1.3c0,0.2,0,0.4,0.1,0.6c0.1,0.4,0.6,0.4,1.1,0.4c0.1-0.1,0.2-0.2,0.3-0.3
		c0.3-0.4,0.7-0.7,1-1.1c0.2-0.2,0.4-0.3,0.5-0.5c0.2,0.1,0.4,0.3,0.5,0.5c0.4,0.4,0.8,0.8,1.2,1.2c0,0,0,0.1,0,0.1
		c0.1,0,0.1,0,0.2,0c0,0,0,0,0,0c0.2,0.1,0.8,0,0.9-0.1c0.2,0,0.2-0.1,0.3-0.2c0.1-0.7,0.1-1.8,0.1-2.7c0-1.6,0-3.1,0-4.7
		c0.8,0,1.8-0.1,2.5,0.1c0,0,0,0.1,0,0.1c0,0,0,0,0,0c0,0,0,0.1,0,0.1c0,0,0,0,0,0C30.2,5.8,30.2,6.9,30.2,8z M10.9,29.5
		C10.9,29.5,10.9,29.4,10.9,29.5c0-0.1-0.1-0.1-0.1-0.1c0,0,0-0.1,0-0.1c0,0,0,0,0,0c0-0.2,0-0.4,0.1-0.5c0.1-0.2,0.2-0.2,0.3-0.3
		c0.2,0,0.4,0,0.5,0.1c0.4,0.1,0.4,0.7,0.2,1c-0.1,0.1-0.2,0.1-0.3,0.2c-0.2,0-0.3,0-0.5,0c0,0,0-0.1,0-0.1
		C11.1,29.6,11,29.6,10.9,29.5C11,29.6,11,29.5,10.9,29.5C11,29.5,11,29.5,10.9,29.5z M10.9,22.6c0-0.1,0-0.1-0.1-0.2
		c0-0.2,0-0.3,0.1-0.4c0,0,0-0.1,0-0.1c0.1-0.1,0.1-0.1,0.2-0.2c0,0,0,0,0,0c0.1,0,0.1,0,0.2,0c0,0,0,0,0,0c0.2,0,0.3,0,0.4,0.1
		C12,21.8,12,22,12,22.2c0,0,0,0,0,0c0,0.1,0,0.1,0,0.1c0,0.1,0,0.1,0,0.2c-0.1,0.1-0.2,0.2-0.3,0.3c-0.1,0-0.1,0-0.2,0.1
		c-0.2,0-0.3,0-0.5,0c0,0,0-0.1,0-0.1c0,0-0.1,0-0.1,0C11,22.7,10.9,22.7,10.9,22.6C10.9,22.7,10.9,22.7,10.9,22.6
		C10.9,22.7,10.9,22.6,10.9,22.6C10.9,22.6,10.9,22.6,10.9,22.6z M10.9,15.1C10.9,15.1,10.9,15.1,10.9,15.1C11,15,11,15,11.1,14.9
		c0.1,0,0.1,0,0.2,0c0,0,0,0,0,0c0.1,0,0.2,0,0.3,0c0.1,0.1,0.2,0.1,0.3,0.2c0.1,0.1,0.1,0.2,0.2,0.3c0,0.2,0,0.4-0.1,0.5
		c0,0.1,0,0.1-0.1,0.1c0,0,0,0,0,0c0,0-0.1,0-0.1,0c0,0,0,0.1,0,0.1c0,0-0.1,0-0.1,0c0,0,0,0,0,0c-0.2,0-0.4,0-0.5-0.1
		C10.8,15.9,10.7,15.4,10.9,15.1z M10.9,8.3c0-0.2,0.1-0.1,0.2-0.3c0,0,0.1,0,0.1,0c0,0,0,0,0,0c0.4,0,0.5,0.1,0.7,0.2
		c0,0.1,0.1,0.2,0.1,0.3c0.1,0.3-0.2,0.5-0.3,0.7c-0.2,0-0.3,0.1-0.5,0c-0.1,0,0,0-0.1,0C11,9.2,11,9.1,10.9,9
		C10.8,8.8,10.7,8.5,10.9,8.3z"/>
</g>
</svg>
