<?xml version="1.0" encoding="UTF-8" standalone="no"?>
<!DOCTYPE svg PUBLIC "-//W3C//DTD SVG 1.1//EN" "http://www.w3.org/Graphics/SVG/1.1/DTD/svg11.dtd">
<svg width="38px" height="38px" viewBox="0 0 38 38" version="1.1" xmlns="http://www.w3.org/2000/svg" xmlns:xlink="http://www.w3.org/1999/xlink" xml:space="preserve" xmlns:serif="http://www.serif.com/" style="fill-rule:evenodd;clip-rule:evenodd;stroke-linecap:round;stroke-linejoin:round;stroke-miterlimit:1.5;">
    <g id="ArtBoard1" transform="matrix(0.996605,0,0,0.996116,0.0790355,3.05239)">
        <rect x="-0.079" y="-3.064" width="38.129" height="38.129" style="fill:none;"/>
        <g transform="matrix(-0.423056,-0.359278,0.369205,-0.435171,0.773032,53.9348)">
            <path d="M22.476,33.19C21.84,32.068 20.627,31.371 19.309,31.371C17.991,31.371 16.778,32.068 16.142,33.19L9.033,45.736C8.415,46.825 8.436,48.151 9.086,49.223C9.737,50.294 10.921,50.951 12.2,50.951L26.418,50.951C27.698,50.951 28.882,50.294 29.532,49.223C30.183,48.151 30.203,46.825 29.586,45.736L22.476,33.19ZM19.309,34.888L26.418,47.434L12.2,47.434L19.309,34.888Z" style="fill:rgb(117,117,117);"/>
        </g>
        <g transform="matrix(0.501668,0.426039,-0.791538,0.932964,25.0773,-9.85782)">
            <path d="M24.325,8.516C24.325,7.618 22.97,6.889 21.302,6.889L15.256,6.889C13.588,6.889 12.233,7.618 12.233,8.516L12.233,29.963C12.233,30.86 13.588,31.589 15.256,31.589L21.302,31.589C22.97,31.589 24.325,30.86 24.325,29.963L24.325,8.516Z" style="fill:white;"/>
            <path d="M27.374,8.516C27.374,6.712 24.653,5.249 21.302,5.249C21.302,5.249 15.256,5.249 15.256,5.249C11.905,5.249 9.184,6.712 9.184,8.516C9.184,8.516 9.184,29.963 9.184,29.963C9.184,31.766 11.905,33.23 15.256,33.23L21.302,33.23C24.653,33.23 27.374,31.766 27.374,29.963C27.374,29.963 27.374,8.516 27.374,8.516ZM24.325,8.516C24.325,7.618 22.97,6.889 21.302,6.889L15.256,6.889C13.588,6.889 12.233,7.618 12.233,8.516L12.233,29.963C12.233,30.86 13.588,31.589 15.256,31.589L21.302,31.589C22.97,31.589 24.325,30.86 24.325,29.963L24.325,8.516Z" style="fill:rgb(117,117,117);"/>
        </g>
        <g transform="matrix(2.29932,0,0,2.30045,2.70989,-47.1829)">
            <path d="M10.304,34.885L1.157,34.885" style="fill:none;stroke:rgb(117,117,117);stroke-width:0.87px;"/>
        </g>
        <g transform="matrix(1.00031,0.0788344,-0.0787957,1.0008,2.91266,-5.3328)">
            <path d="M28.139,7.863L20.981,17.934" style="fill:none;stroke:rgb(117,117,117);stroke-width:2px;"/>
        </g>
    </g>
</svg>
