<?xml version="1.0" encoding="UTF-8" standalone="no"?>
<!DOCTYPE svg PUBLIC "-//W3C//DTD SVG 1.1//EN" "http://www.w3.org/Graphics/SVG/1.1/DTD/svg11.dtd">
<svg width="38px" height="38px" viewBox="0 0 38 38" version="1.1" xmlns="http://www.w3.org/2000/svg" xmlns:xlink="http://www.w3.org/1999/xlink" xml:space="preserve" xmlns:serif="http://www.serif.com/" style="fill-rule:evenodd;clip-rule:evenodd;stroke-linejoin:round;stroke-miterlimit:2;">
    <g id="ArtBoard1" transform="matrix(0.996605,0,0,0.996116,0.0790355,3.05239)">
        <rect x="-0.079" y="-3.064" width="38.129" height="38.129" style="fill:none;"/>
        <g transform="matrix(2.28277,-0.243915,0.243796,2.28389,-23.8508,-11.3267)">
            <path d="M12.83,13.009L9.133,16.834C8.755,17.235 8.774,17.869 9.176,18.247C9.578,18.625 10.211,18.606 10.59,18.204L14.287,14.38C14.665,13.978 14.646,13.345 14.244,12.966C13.842,12.588 13.209,12.607 12.83,13.009Z" style="fill:rgb(117,117,117);"/>
        </g>
        <g transform="matrix(-2.28277,-0.243915,-0.243796,2.28389,57.5236,-11.3267)">
            <path d="M12.83,13.009L9.133,16.834C8.755,17.235 8.774,17.869 9.176,18.247C9.578,18.625 10.211,18.606 10.59,18.204L14.287,14.38C14.665,13.978 14.646,13.345 14.244,12.966C13.842,12.588 13.209,12.607 12.83,13.009Z" style="fill:rgb(117,117,117);"/>
        </g>
        <g transform="matrix(1.17353,0,0,1.49026,-0.889557,-4.95809)">
            <circle cx="15.358" cy="8.796" r="3.479" style="fill:rgb(117,117,117);"/>
        </g>
        <g transform="matrix(1.60191,0,0,1.80962,-8.86577,-7.86262)">
            <path d="M14.138,11.878C14.635,12.53 15.369,12.942 16.187,12.942C16.998,12.942 17.726,12.536 18.223,11.894C21.954,12.105 21.779,13.531 21.779,15.239L21.051,21.102C21.051,22.965 19.538,23.131 17.675,23.131L14.758,23.131C12.895,23.131 11.383,22.965 11.383,21.102L10.503,15.239C10.503,13.484 10.034,12.088 14.138,11.878Z" style="fill:rgb(117,117,117);"/>
        </g>
        <g transform="matrix(1.16079,0,0,1.13783,-1.60333,0.0162597)">
            <path d="M16.196,18.888L22.812,16.03L21.946,25.362L16.22,28.104L10.358,25.323L9.458,16.03L16.196,18.888Z" style="fill:white;"/>
        </g>
        <g transform="matrix(2.29549,-0.0348672,0.03485,2.29661,-20.4618,-13.4734)">
            <path d="M10.377,18.401L13.792,17.943C14.34,17.878 14.732,17.38 14.666,16.832C14.601,16.284 14.103,15.892 13.555,15.958L10.14,16.415C9.592,16.48 9.2,16.979 9.266,17.527C9.331,18.075 9.829,18.466 10.377,18.401Z" style="fill:rgb(117,117,117);"/>
        </g>
        <g transform="matrix(2.29549,0.0348672,0.03485,-2.29661,-1.44329,64.9439)">
            <path d="M10.377,18.401L13.792,17.943C14.34,17.878 14.732,17.38 14.666,16.832C14.601,16.284 14.103,15.892 13.555,15.958L10.14,16.415C9.592,16.48 9.2,16.979 9.266,17.527C9.331,18.075 9.829,18.466 10.377,18.401Z" style="fill:rgb(117,117,117);"/>
        </g>
    </g>
</svg>
