<?xml version="1.0" encoding="UTF-8" standalone="no"?>
<!DOCTYPE svg PUBLIC "-//W3C//DTD SVG 1.1//EN" "http://www.w3.org/Graphics/SVG/1.1/DTD/svg11.dtd">
<svg width="38px" height="38px" viewBox="0 0 38 38" version="1.1" xmlns="http://www.w3.org/2000/svg" xmlns:xlink="http://www.w3.org/1999/xlink" xml:space="preserve" xmlns:serif="http://www.serif.com/" style="fill-rule:evenodd;clip-rule:evenodd;stroke-linecap:round;stroke-linejoin:round;stroke-miterlimit:1.5;">
    <g id="ArtBoard1" transform="matrix(0.996605,0,0,0.996116,0.0790355,3.05239)">
        <rect x="-0.079" y="-3.064" width="38.129" height="38.129" style="fill:none;"/>
        <g transform="matrix(1.00341,0,0,1.0039,2.03209,-0.91554)">
            <path d="M17.611,14.107C17.611,14.107 13.146,18.936 11.847,20.34C11.62,20.586 11.475,20.897 11.435,21.23C11.334,22.052 11.132,23.702 10.979,24.947C10.936,25.297 11.074,25.646 11.346,25.872C11.617,26.098 11.985,26.172 12.322,26.066C13.472,25.707 14.961,25.242 15.658,25.025C15.914,24.945 16.144,24.798 16.325,24.6C17.916,22.859 25.942,14.074 28.889,10.849C29.175,10.536 29.322,10.121 29.297,9.699C29.272,9.276 29.078,8.881 28.758,8.603C27.525,7.535 25.632,5.895 24.419,4.845C23.77,4.282 22.792,4.334 22.207,4.962C18.947,8.457 9.112,19 7.397,20.838C7.23,21.018 7.114,21.24 7.064,21.481C6.802,22.735 5.926,26.932 5.293,29.967C5.152,30.643 5.387,31.342 5.907,31.795C6.427,32.249 7.152,32.386 7.802,32.154C10.615,31.149 14.454,29.779 15.731,29.323C16.015,29.221 16.27,29.051 16.473,28.827C18.03,27.105 24.95,19.448 24.95,19.448" style="fill:none;stroke:rgb(117,117,117);stroke-width:2px;"/>
        </g>
    </g>
</svg>
