<?xml version="1.0" encoding="UTF-8" standalone="no"?>
<!DOCTYPE svg PUBLIC "-//W3C//DTD SVG 1.1//EN" "http://www.w3.org/Graphics/SVG/1.1/DTD/svg11.dtd">
<svg width="38px" height="38px" viewBox="0 0 38 38" version="1.1" xmlns="http://www.w3.org/2000/svg" xmlns:xlink="http://www.w3.org/1999/xlink" xml:space="preserve" xmlns:serif="http://www.serif.com/" style="fill-rule:evenodd;clip-rule:evenodd;stroke-linecap:round;stroke-linejoin:round;stroke-miterlimit:1.5;">
    <g id="ArtBoard1" transform="matrix(0.996605,0,0,0.996116,0.0790355,3.05239)">
        <rect x="-0.079" y="-3.064" width="38.129" height="38.129" style="fill:none;"/>
        <g>
            <g transform="matrix(0.974305,0,0,0.974784,1.2521,1.13097)">
                <path d="M14.605,32.128L19.623,32.128" style="fill:none;stroke:rgb(117,117,117);stroke-width:2.06px;"/>
            </g>
            <g transform="matrix(0.43991,0,0,0.649856,-2.10538,-5.99923)">
                <path d="M14.605,32.128L19.623,32.128" style="fill:none;stroke:rgb(117,117,117);stroke-width:3.62px;stroke-linecap:square;"/>
            </g>
            <g transform="matrix(0.311063,-0.311216,0.311063,0.311216,-7.16587,19.073)">
                <path d="M14.605,32.128L19.623,32.128" style="fill:none;stroke:rgb(117,117,117);stroke-width:4.56px;stroke-linecap:square;"/>
            </g>
            <g transform="matrix(-0.311063,-0.311216,-0.311063,0.311216,43.1684,19.804)">
                <path d="M14.605,32.128L19.623,32.128" style="fill:none;stroke:rgb(117,117,117);stroke-width:4.56px;stroke-linecap:square;"/>
            </g>
            <g transform="matrix(0.43991,0,0,0.649856,22.7297,-5.99923)">
                <path d="M14.605,32.128L19.623,32.128" style="fill:none;stroke:rgb(117,117,117);stroke-width:3.62px;stroke-linecap:square;"/>
            </g>
            <g transform="matrix(2.69367e-17,-0.440126,0.43991,2.69499e-17,3.79871,10.3635)">
                <path d="M14.605,32.128L19.623,32.128" style="fill:none;stroke:rgb(117,117,117);stroke-width:4.56px;stroke-linecap:square;"/>
            </g>
            <g transform="matrix(0.311063,-0.311216,0.311063,0.311216,10.5298,1.36861)">
                <path d="M14.605,32.128L19.623,32.128" style="fill:none;stroke:rgb(117,117,117);stroke-width:4.56px;stroke-linecap:square;"/>
            </g>
            <g transform="matrix(-0.311063,-0.311216,-0.311063,0.311216,25.0858,1.71246)">
                <path d="M14.605,32.128L19.623,32.128" style="fill:none;stroke:rgb(117,117,117);stroke-width:4.56px;stroke-linecap:square;"/>
            </g>
            <g transform="matrix(0.82256,0,0,0.822964,3.85242,4.09426)">
                <path d="M12.667,20.335C10.815,18.964 9.613,16.763 9.613,14.284C9.613,10.132 12.984,6.761 17.136,6.761C21.288,6.761 24.659,10.132 24.659,14.284C24.659,16.676 23.54,18.808 21.798,20.187C22,20.54 22.115,20.948 22.115,21.384L21.115,26.227C21.115,27.564 20.03,28.649 18.693,28.649L15.85,28.649C14.514,28.649 13.428,27.564 13.428,26.227L12.428,21.384C12.428,21.008 12.514,20.652 12.667,20.335Z" style="fill:white;"/>
                <path d="M9.991,21.225L9.989,21.384C9.989,21.55 10.006,21.715 10.039,21.877L10.997,26.518C11.143,29.062 13.262,31.089 15.85,31.089C15.85,31.089 18.693,31.089 18.693,31.089C21.281,31.089 23.4,29.062 23.547,26.51C23.546,26.518 24.504,21.877 24.504,21.877C24.538,21.715 24.555,21.55 24.555,21.384C24.555,21.238 24.548,21.094 24.536,20.952C26.129,19.187 27.099,16.848 27.099,14.284C27.099,8.786 22.635,4.322 17.136,4.322C11.638,4.322 7.174,8.786 7.174,14.284C7.174,16.982 8.247,19.431 9.991,21.225ZM12.667,20.335C10.815,18.964 9.613,16.763 9.613,14.284C9.613,10.132 12.984,6.761 17.136,6.761C21.288,6.761 24.659,10.132 24.659,14.284C24.659,16.676 23.54,18.808 21.798,20.187C22,20.54 22.115,20.948 22.115,21.384L21.115,26.227C21.115,27.564 20.03,28.649 18.693,28.649L15.85,28.649C14.514,28.649 13.428,27.564 13.428,26.227L12.428,21.384C12.428,21.008 12.514,20.652 12.667,20.335Z" style="fill:rgb(117,117,117);"/>
            </g>
        </g>
    </g>
</svg>
