<?xml version="1.0" encoding="UTF-8" standalone="no"?>
<!DOCTYPE svg PUBLIC "-//W3C//DTD SVG 1.1//EN" "http://www.w3.org/Graphics/SVG/1.1/DTD/svg11.dtd">
<svg width="38px" height="38px" viewBox="0 0 38 38" version="1.1" xmlns="http://www.w3.org/2000/svg" xmlns:xlink="http://www.w3.org/1999/xlink" xml:space="preserve" style="fill-rule:evenodd;clip-rule:evenodd;stroke-linecap:round;stroke-linejoin:round;stroke-miterlimit:1.5;">
    <g id="ArtBoard1">
        <rect x="0" y="0" width="38" height="38" style="fill:none;"/>
        <g id="Umriss">
            <path d="M13,4L25,4C26.657,4 28,5.343 28,7L28,31C28,32.657 26.657,34 25,34L13,34C11.343,34 10,32.657 10,31L10,7C10,5.343 11.343,4 13,4Z" style="fill:none;stroke:rgb(117,117,117);stroke-width:2px;"/>
        </g>
        <g id="Displaybalken">
            <path d="M14,8.5L24,8.5C24.276,8.5 24.5,8.724 24.5,9L24.5,13C24.5,13.276 24.276,13.5 24,13.5L14,13.5C13.724,13.5 13.5,13.276 13.5,13L13.5,9C13.5,8.724 13.724,8.5 14,8.5Z" style="fill:none;stroke:rgb(117,117,117);stroke-width:2px;"/>
        </g>
        <g id="Tasten">
            <circle cx="14.4" cy="20.2" r="1.5" style="fill:rgb(117,117,117);"/>
            <circle cx="19" cy="20.2" r="1.5" style="fill:rgb(117,117,117);"/>
            <circle cx="23.6" cy="20.2" r="1.5" style="fill:rgb(117,117,117);"/>
            <circle cx="14.4" cy="27.2" r="1.5" style="fill:rgb(117,117,117);"/>
            <circle cx="19" cy="27.2" r="1.5" style="fill:rgb(117,117,117);"/>
            <circle cx="23.6" cy="27.2" r="1.5" style="fill:rgb(117,117,117);"/>
        </g>
    </g>
</svg>
