<?xml version="1.0" encoding="UTF-8" standalone="no"?><!DOCTYPE svg PUBLIC "-//W3C//DTD SVG 1.1//EN" "http://www.w3.org/Graphics/SVG/1.1/DTD/svg11.dtd"><svg width="40px" height="44px" viewBox="0 0 40 40" version="1.1" xmlns="http://www.w3.org/2000/svg" xmlns:xlink="http://www.w3.org/1999/xlink" xml:space="preserve" xmlns:serif="http://www.serif.com/" style="fill-rule:evenodd;clip-rule:evenodd;stroke-linecap:round;stroke-linejoin:round;stroke-miterlimit:1.5;"><rect id="ArtBoard1" x="0" y="0" width="40" height="40" style="fill:none;"/><clipPath id="_clip1"><rect x="0" y="0" width="40" height="40"/></clipPath><g clip-path="url(#_clip1)"><g><g><path d="M5.301,21.313c0.388,-3.256 -1.028,-17.158 15.089,-17.245c8.945,-0.048 13.516,5.914 13.725,13.559c0.163,5.986 -3.612,11.411 -11.514,12.332c-2.298,4.119 -6.828,9.415 -11.515,9.261c-7.749,-0.256 -4.764,-4.542 -5.759,-10.107c-0.038,-0.21 -4.736,0.123 -4.602,-1.09c0.134,-1.214 4.576,-6.71 4.576,-6.71Z" style="fill:none;stroke:#808080;stroke-width:1.5px;"/><path d="M6.28,31.602c-0,-0 3.089,0.141 5.058,-0.798" style="fill:none;stroke:#808080;stroke-width:1.5px;"/></g><path d="M21.394,20.554c0.279,0.797 0.568,1.585 0.867,2.362c0.299,0.778 0.509,1.565 0.628,2.363l0,0.418c0,0.598 -0.159,1.117 -0.478,1.555c-0.319,0.439 -0.798,0.658 -1.436,0.658c-0.638,0 -1.116,-0.219 -1.435,-0.658c-0.319,-0.438 -0.479,-0.957 -0.479,-1.555l0,-0.418c0.12,-0.798 0.329,-1.585 0.628,-2.363c0.3,-0.777 0.589,-1.565 0.868,-2.362l0.837,-0Z" style="fill:#bfbfbf;"/><path d="M18.762,19.836c-0.239,0.479 -0.498,1.037 -0.777,1.675c-0.279,0.638 -0.578,1.236 -0.897,1.794c-0.319,0.558 -0.688,1.027 -1.107,1.405c-0.418,0.379 -0.887,0.569 -1.405,0.569c-0.479,-0 -0.907,-0.19 -1.286,-0.569c-0.379,-0.378 -0.568,-0.807 -0.568,-1.285c-0,-0.519 0.189,-0.987 0.568,-1.406c0.379,-0.419 0.847,-0.787 1.406,-1.106c0.558,-0.319 1.156,-0.618 1.794,-0.897c0.638,-0.28 1.196,-0.539 1.674,-0.778l0.598,0.598Z" style="fill:#a6a6a6;"/><path d="M23.786,19.238c0.479,0.239 1.027,0.498 1.645,0.778c0.618,0.279 1.216,0.578 1.794,0.897c0.578,0.319 1.057,0.687 1.436,1.106c0.378,0.419 0.568,0.887 0.568,1.406c-0,0.478 -0.19,0.907 -0.568,1.285c-0.379,0.379 -0.808,0.569 -1.286,0.569c-0.558,-0 -1.037,-0.19 -1.436,-0.569c-0.398,-0.378 -0.767,-0.847 -1.106,-1.405c-0.339,-0.558 -0.638,-1.156 -0.897,-1.794c-0.259,-0.638 -0.509,-1.196 -0.748,-1.675l0.598,-0.598Z" style="fill:#d9d9d9;"/><circle cx="9.418" cy="21.764" r="1.491" style="fill:#8c8c8c;"/><path d="M17.447,17.444c-0.798,0.279 -1.585,0.568 -2.363,0.867c-0.777,0.299 -1.565,0.508 -2.362,0.628l-0.419,0c-0.598,0 -1.116,-0.159 -1.555,-0.478c-0.438,-0.319 -0.658,-0.798 -0.658,-1.436c0,-0.638 0.22,-1.116 0.658,-1.435c0.439,-0.319 0.957,-0.479 1.555,-0.479l0.419,0c0.797,0.12 1.585,0.329 2.362,0.628c0.778,0.299 1.565,0.588 2.363,0.867l-0,0.838Z" style="fill:#8c8c8c;"/><path d="M24.504,16.606c0.797,-0.279 1.585,-0.568 2.362,-0.867c0.778,-0.299 1.565,-0.508 2.363,-0.628l0.418,0c0.599,0 1.117,0.16 1.555,0.479c0.439,0.319 0.658,0.797 0.658,1.435c0,0.638 -0.219,1.117 -0.658,1.436c-0.438,0.319 -0.956,0.478 -1.555,0.478l-0.418,0c-0.798,-0.12 -1.585,-0.329 -2.363,-0.628c-0.777,-0.299 -1.565,-0.588 -2.362,-0.867l0,-0.838Z" style="fill:#404040;"/><path d="M18.164,14.812c-0.478,-0.239 -1.036,-0.488 -1.674,-0.747c-0.638,-0.26 -1.236,-0.559 -1.794,-0.897c-0.559,-0.339 -1.027,-0.708 -1.406,-1.107c-0.379,-0.399 -0.568,-0.877 -0.568,-1.435c-0,-0.479 0.189,-0.907 0.568,-1.286c0.379,-0.379 0.807,-0.568 1.286,-0.568c0.518,-0 0.987,0.189 1.405,0.568c0.419,0.379 0.788,0.857 1.107,1.435c0.319,0.578 0.618,1.176 0.897,1.794c0.279,0.618 0.538,1.167 0.777,1.645l-0.598,0.598Z" style="fill:#737373;"/><path d="M23.188,14.214c0.239,-0.478 0.489,-1.027 0.748,-1.645c0.259,-0.618 0.558,-1.216 0.897,-1.794c0.339,-0.578 0.708,-1.056 1.106,-1.435c0.399,-0.379 0.878,-0.568 1.436,-0.568c0.478,-0 0.907,0.189 1.286,0.568c0.378,0.379 0.568,0.807 0.568,1.286c-0,0.558 -0.19,1.036 -0.568,1.435c-0.379,0.399 -0.858,0.768 -1.436,1.107c-0.578,0.338 -1.176,0.637 -1.794,0.897c-0.618,0.259 -1.166,0.508 -1.645,0.747l-0.598,-0.598Z" style="fill:#333;"/><path d="M20.557,13.496c-0.24,-0.797 -0.519,-1.584 -0.838,-2.362c-0.319,-0.777 -0.538,-1.565 -0.658,-2.362l0,-0.419c0,-0.598 0.16,-1.116 0.479,-1.555c0.319,-0.439 0.797,-0.658 1.435,-0.658c0.638,0 1.117,0.219 1.436,0.658c0.319,0.439 0.478,0.957 0.478,1.555l0,0.419c-0.119,0.797 -0.339,1.585 -0.658,2.362c-0.319,0.778 -0.598,1.565 -0.837,2.362l-0.837,0Z" style="fill:#595959;"/></g></g></svg>