<?xml version="1.0" encoding="UTF-8" standalone="no"?>
<!DOCTYPE svg PUBLIC "-//W3C//DTD SVG 1.1//EN" "http://www.w3.org/Graphics/SVG/1.1/DTD/svg11.dtd">
<svg width="38px" height="38px" viewBox="0 0 38 38" version="1.1" xmlns="http://www.w3.org/2000/svg" xmlns:xlink="http://www.w3.org/1999/xlink" xml:space="preserve" xmlns:serif="http://www.serif.com/" style="fill-rule:evenodd;clip-rule:evenodd;stroke-linecap:round;stroke-linejoin:round;stroke-miterlimit:1.5;">
    <g id="ArtBoard1" transform="matrix(0.996605,0,0,0.996116,0.0790355,3.05239)">
        <rect x="-0.079" y="-3.064" width="38.129" height="38.129" style="fill:none;"/>
        <g transform="matrix(1.2615,0,0,1.26212,-8.98427,-9.05585)">
            <path d="M22.73,7.668L25.262,15.462L33.458,15.462L26.828,20.279L29.36,28.073L22.73,23.256L16.1,28.073L18.632,20.279L12.003,15.462L20.198,15.462L22.73,7.668Z" style="fill:none;stroke:rgb(117,117,117);stroke-width:1.59px;"/>
        </g>
        <g transform="matrix(1.00341,0,0,1.0039,0.269691,-2.17586)">
            <path d="M19.23,27.209L19.23,36.047" style="fill:none;stroke:rgb(117,117,117);stroke-width:2px;"/>
        </g>
        <g transform="matrix(1.00341,0,0,0.764434,-4.42718,6.35948)">
            <path d="M19.23,28.449L19.23,34.005" style="fill:none;stroke:rgb(117,117,117);stroke-width:2.25px;"/>
        </g>
        <g transform="matrix(1.00341,0,0,0.764434,4.96656,6.35948)">
            <path d="M19.23,28.449L19.23,34.005" style="fill:none;stroke:rgb(117,117,117);stroke-width:2.25px;"/>
        </g>
    </g>
</svg>
