<?xml version="1.0" encoding="UTF-8" standalone="no"?>
<!DOCTYPE svg PUBLIC "-//W3C//DTD SVG 1.1//EN" "http://www.w3.org/Graphics/SVG/1.1/DTD/svg11.dtd">
<svg width="38px" height="38px" viewBox="0 0 38 38" version="1.1" xmlns="http://www.w3.org/2000/svg" xmlns:xlink="http://www.w3.org/1999/xlink" xml:space="preserve" xmlns:serif="http://www.serif.com/" style="fill-rule:evenodd;clip-rule:evenodd;stroke-linecap:square;stroke-linejoin:round;stroke-miterlimit:1.5;">
    <g id="ArtBoard1" transform="matrix(0.996605,0,0,0.996116,0.0790355,3.05239)">
        <rect x="-0.079" y="-3.064" width="38.129" height="38.129" style="fill:none;"/>
        <g transform="matrix(-0.79403,-0.218184,-0.265741,0.968052,42.7442,1.13675)">
            <path d="M21.913,21.68C21.343,22.127 20.625,22.394 19.845,22.394C17.994,22.394 16.492,20.891 16.492,19.041C16.492,17.19 17.994,15.688 19.845,15.688C20.597,15.688 21.292,15.936 21.851,16.355" style="fill:none;stroke:rgb(117,117,117);stroke-width:2.19px;"/>
        </g>
        <g transform="matrix(-0.79403,-0.218184,-0.265741,0.968052,42.9785,2.22758)">
            <path d="M26.962,22.798C25.499,24.797 23.135,26.096 20.47,26.096C16.032,26.096 12.429,22.493 12.429,18.055C12.429,13.617 16.032,10.014 20.47,10.014C23.486,10.014 26.116,11.678 27.492,14.137" style="fill:none;stroke:rgb(117,117,117);stroke-width:2.19px;stroke-linecap:butt;"/>
        </g>
        <g transform="matrix(-0.79403,-0.218184,-0.265741,0.968052,41.662,2.91173)">
            <path d="M31.84,19.735C30.602,25.607 25.386,30.02 19.148,30.02C11.99,30.02 6.178,24.209 6.178,17.05C6.178,9.892 11.99,4.08 19.148,4.08C25.3,4.08 30.457,8.372 31.786,14.123" style="fill:none;stroke:rgb(117,117,117);stroke-width:2.19px;stroke-linecap:butt;"/>
        </g>
        <g transform="matrix(-1.00341,0,0,1.0039,40.1206,-3.90437)">
            <path d="M12.891,29.564L11.918,36.369" style="fill:none;stroke:rgb(117,117,117);stroke-width:2px;stroke-linecap:round;"/>
        </g>
        <g transform="matrix(-1.00341,0,0,1.0039,40.1964,-3.2299)">
            <path d="M23.44,30.517L24.731,35.238" style="fill:none;stroke:rgb(117,117,117);stroke-width:2px;stroke-linecap:round;"/>
        </g>
        <g transform="matrix(-1.00146,-0.0624559,-0.0624253,1.00195,40.2599,-3.03326)">
            <path d="M24.725,16.718L24.311,14.761C24.311,14.761 21.802,16.758 20.253,17.991C20.028,18.171 19.923,18.462 19.983,18.744C20.043,19.026 20.257,19.25 20.536,19.323C22.451,19.822 25.554,20.631 25.554,20.631L25.139,18.674L37.295,16.1C37.835,15.985 38.18,15.454 38.066,14.914C37.951,14.374 37.42,14.029 36.88,14.143L24.725,16.718Z" style="fill:rgb(117,117,117);"/>
        </g>
    </g>
</svg>
